# xmcd
#
# Track frame offsets:
#	150
#	26722
#	42447
#	59714
#	75790
#	90140
#	111972
#	130393
#	144834
#	166760
#	190589
#	209183
#	233076
#	259318
#	283881
#	301420
#	325008
#
# Disc length: 4550 seconds
#
# Revision: 2
# Processed by: cddbd v1.5.2PL0 Copyright (c) Steve Scherf et al.
# Submitted via: audiograbber 1.83.01
#
DISCID=eb11c411
DTITLE=The Eden Symphony Orchestra - How Great Thou Art: A Symphony Of Hymns - 
DTITLE=Disc One
DYEAR=2005
DGENRE=Christian Instrumental
TTITLE0=How Great Thou Art
TTITLE1=Be Thou My Vision
TTITLE2=Stand Up, Stand Up For Jesus
TTITLE3=Praise To The Lord, The Almighty
TTITLE4=Nearer, My God, To Thee
TTITLE5=Beneath The Cross Of Jesus
TTITLE6=Blessed Assurance
TTITLE7=Come, Thou Fount Of Every Blessing
TTITLE8=Near The Cross
TTITLE9=I Hear Thy Welcome Voice
TTITLE10=To God Be The Glory
TTITLE11=The Love Of God
TTITLE12=Friendship With Jesus
TTITLE13=Pass Me Not, O Gentle Savior
TTITLE14=Give Me Oil In My Lamp
TTITLE15=When I Can Read My Title Clear
TTITLE16=This World Is Not My Home
EXTD=
EXTT0=
EXTT1=
EXTT2=
EXTT3=
EXTT4=
EXTT5=
EXTT6=
EXTT7=
EXTT8=
EXTT9=
EXTT10=
EXTT11=
EXTT12=
EXTT13=
EXTT14=
EXTT15=
EXTT16=
PLAYORDER=
